<svg width="46" height="46" viewBox="0 0 46 46" fill="none" xmlns="http://www.w3.org/2000/svg">
<rect width="46" height="46" rx="8" fill="#3982F4"/>
<path d="M25.1 20.7H22.9V18.5H25.1M25.1 29.5H22.9V22.9H25.1M24 13C22.5555 13 21.1251 13.2845 19.7905 13.8373C18.4559 14.3901 17.2433 15.2004 16.2218 16.2218C14.1589 18.2847 13 21.0826 13 24C13 26.9174 14.1589 29.7153 16.2218 31.7782C17.2433 32.7996 18.4559 33.6099 19.7905 34.1627C21.1251 34.7155 22.5555 35 24 35C26.9174 35 29.7153 33.8411 31.7782 31.7782C33.8411 29.7153 35 26.9174 35 24C35 22.5555 34.7155 21.1251 34.1627 19.7905C33.6099 18.4559 32.7996 17.2433 31.7782 16.2218C30.7567 15.2004 29.5441 14.3901 28.2095 13.8373C26.8749 13.2845 25.4445 13 24 13Z" fill="white"/>
</svg>
