<svg xmlns="http://www.w3.org/2000/svg" version="1.1" xmlns:xlink="http://www.w3.org/1999/xlink" xmlns:svgjs="http://svgjs.dev/svgjs" width="2000" height="1500" viewBox="0 0 2000 1500"><rect width="2000" height="1500" fill="#ffffff"></rect><g transform="matrix(0.75,0,0,0.75,249.090909090909,500.81853272264357)"><svg viewBox="0 0 396 132" data-background-color="#ffffff" preserveAspectRatio="xMidYMid meet" height="666" width="2000" xmlns="http://www.w3.org/2000/svg" xmlns:xlink="http://www.w3.org/1999/xlink"><g id="tight-bounds" transform="matrix(1,0,0,1,0.2400000000000091,-0.15024288165955113)"><svg viewBox="0 0 395.52 132.30040161132987" height="132.30040161132987" width="395.52"><g><svg viewBox="0 0 671.3172485162902 224.55385716858348" height="132.30040161132987" width="395.52"><g transform="matrix(1,0,0,1,275.79724851629027,58.01115045806672)"><svg viewBox="0 0 395.52 108.53155625245003" height="108.53155625245003" width="395.52"><g id="textblocktransform"><svg viewBox="0 0 395.52 108.53155625245003" height="108.53155625245003" width="395.52" id="textblock"><g><svg viewBox="0 0 395.52 108.53155625245003" height="108.53155625245003" width="395.52"><g transform="matrix(1,0,0,1,0,0)"><svg width="395.52" viewBox="1.8 -34.3 130.89 35" height="108.53155625245003" data-palette-color="#005fb8"><g class="wordmark-text-0" data-fill-palette-color="primary" id="text-0"><path d="M1.8-34.3L35.05-34.3 35.05-23.05 30.45-23.05 30.45-30.15 13.35-30.15 13.35-18.6 21.35-18.6 21.35-23.25 25.3-23.25 25.3-10.1 21.35-10.1 21.35-14.8 13.35-14.8 13.35-4.15 20.1-4.15 20.1 0 1.8 0 1.8-4.15 8.25-4.15 8.25-30.15 1.8-30.15 1.8-34.3ZM60.85-6.7L62.95-3.5Q58.15 0.7 52 0.7L52 0.7Q48.65 0.7 45.65-0.7 42.65-2.1 40.8-4.8 38.95-7.5 38.95-11.2L38.95-11.2Q38.95-15.15 40.85-18.1 42.75-21.05 45.8-22.63 48.85-24.2 52.2-24.2L52.2-24.2Q55.15-24.2 57.47-23.25 59.8-22.3 61.12-20.6 62.45-18.9 62.45-16.7L62.45-16.7Q62.45-13.4 59.62-11.58 56.8-9.75 52.85-9.75L52.85-9.75Q50.3-9.75 48.1-10.28 45.9-10.8 43.65-11.8L43.65-11.8 43.65-11.35Q43.65-9 44.77-7.2 45.9-5.4 47.8-4.45 49.7-3.5 51.95-3.5L51.95-3.5Q57.05-3.5 60.85-6.7L60.85-6.7ZM52.55-20.3Q49.85-20.3 47.52-18.75 45.2-17.2 44.2-14.55L44.2-14.55Q48-13.2 51.8-13.2L51.8-13.2Q54.3-13.2 55.92-14.13 57.55-15.05 57.55-16.7L57.55-16.7Q57.55-18.3 56.15-19.3 54.75-20.3 52.55-20.3L52.55-20.3ZM95.84-3.95L100.55-3.95 100.55 0 86.64 0 86.64-3.95 91-3.95 91-13.7Q91-16.45 89.62-18.03 88.25-19.6 85.69-19.6L85.69-19.6Q81.34-19.6 76.5-14.1L76.5-14.1 76.5-3.95 80.84-3.95 80.84 0 66.3 0 66.3-3.95 71.59-3.95 71.59-19.6 66.3-19.6 66.3-23.55 76.5-23.55 76.5-18Q79.3-21.1 81.87-22.63 84.44-24.15 87.39-24.15L87.39-24.15Q91.44-24.15 93.64-21.55 95.84-18.95 95.84-13.85L95.84-13.85 95.84-3.95ZM131.64-4.05L132.69-0.45Q131.99-0.05 130.99 0.23 129.99 0.5 128.89 0.5L128.89 0.5Q127.04 0.5 125.69-0.48 124.34-1.45 123.84-3.3L123.84-3.3Q121.84-1.5 119.62-0.4 117.39 0.7 114.69 0.7L114.69 0.7Q111.64 0.7 109.02-0.85 106.39-2.4 104.84-5.18 103.29-7.95 103.29-11.45L103.29-11.45Q103.29-15.1 104.92-18.03 106.54-20.95 109.34-22.58 112.14-24.2 115.54-24.2L115.54-24.2Q119.89-24.2 123.54-21L123.54-21 123.54-30.35 118.24-30.35 118.24-34.3 128.34-34.3 128.34-6.05Q128.34-3.65 129.99-3.65L129.99-3.65Q131.09-3.65 131.64-4.05L131.64-4.05ZM108.39-11.5Q108.39-7.9 110.42-5.7 112.44-3.5 115.69-3.5L115.69-3.5Q119.44-3.5 123.54-6.9L123.54-6.9 123.54-17.25Q120.04-20.05 116.64-20.05L116.64-20.05Q114.29-20.05 112.39-18.95 110.49-17.85 109.44-15.9 108.39-13.95 108.39-11.5L108.39-11.5Z" fill="#005fb8" data-fill-palette-color="primary"></path></g></svg></g></svg></g></svg></g></svg></g><g><svg viewBox="0 0 224.55385716858348 224.55385716858348" height="224.55385716858348" width="224.55385716858348"><g><svg></svg></g><g id="icon-0"><svg viewBox="0 0 224.55385716858348 224.55385716858348" height="224.55385716858348" width="224.55385716858348"><g><path d="M0 112.277c0-62.009 50.268-112.277 112.277-112.277 62.009 0 112.277 50.268 112.277 112.277 0 62.009-50.268 112.277-112.277 112.277-62.009 0-112.277-50.268-112.277-112.277zM112.277 214.766c56.603 0 102.489-45.886 102.489-102.489 0-56.603-45.886-102.489-102.489-102.49-56.603 0-102.489 45.886-102.49 102.49 0 56.603 45.886 102.489 102.49 102.489z" data-fill-palette-color="accent" fill="#005fb8" stroke="transparent"></path></g><g transform="matrix(1,0,0,1,49.851660949824335,55.77166546323533)"><svg viewBox="0 0 124.8505352689348 113.01052624211282" height="113.01052624211282" width="124.8505352689348"><g><svg xmlns="http://www.w3.org/2000/svg" xmlns:xlink="http://www.w3.org/1999/xlink" version="1.1" x="0" y="0" viewBox="4.75 8.852 86.499 78.29599999999998" enable-background="new 0 0 96 96" xml:space="preserve" height="113.01052624211282" width="124.8505352689348" class="icon-cg-0" data-fill-palette-color="accent" id="cg-0"><path d="M10.103 70.804h28.814v9.415c-12.461 0.211-16.655 5.495-16.831 5.725l-0.916 1.204h53.658l-0.916-1.204c-0.175-0.229-4.369-5.513-16.829-5.725v-9.415h28.813c2.951 0 5.353-2.401 5.353-5.353V14.205c0-2.951-2.401-5.353-5.353-5.353H10.103c-2.951 0-5.353 2.401-5.353 5.353v51.246C4.75 68.402 7.151 70.804 10.103 70.804zM48.75 25.653h33.094v20.335H48.75V25.653zM31.288 35.527c4.425 0 8.025 3.601 8.025 8.027 0 4.424-3.6 8.022-8.025 8.022-4.424 0-8.022-3.599-8.022-8.022C23.266 39.128 26.864 35.527 31.288 35.527zM31.288 53.076c9.108 0 16.543 7.215 16.939 16.228h-9.311H14.35C14.746 60.292 22.181 53.076 31.288 53.076z" fill="#005fb8" data-fill-palette-color="accent"></path><rect x="56.806" y="30.007" width="16.982" height="1.5" fill="#005fb8" data-fill-palette-color="accent"></rect><rect x="56.806" y="35.926" width="16.982" height="1.5" fill="#005fb8" data-fill-palette-color="accent"></rect></svg></g></svg></g></svg></g></svg></g></svg></g><defs></defs></svg><rect width="395.52" height="132.30040161132987" fill="none" stroke="none" visibility="hidden"></rect></g></svg></g></svg>