<svg width="46" height="46" viewBox="0 0 46 46" fill="none" xmlns="http://www.w3.org/2000/svg">
<rect width="46" height="46" rx="8" fill="#3982F4"/>
<path d="M20.3 33L19.9 29.8C19.6833 29.7167 19.4793 29.6167 19.288 29.5C19.0967 29.3833 18.909 29.2583 18.725 29.125L15.75 30.375L13 25.625L15.575 23.675C15.5583 23.5583 15.55 23.446 15.55 23.338V22.663C15.55 22.5543 15.5583 22.4417 15.575 22.325L13 20.375L15.75 15.625L18.725 16.875C18.9083 16.7417 19.1 16.6167 19.3 16.5C19.5 16.3833 19.7 16.2833 19.9 16.2L20.3 13H25.8L26.2 16.2C26.4167 16.2833 26.621 16.3833 26.813 16.5C27.005 16.6167 27.1923 16.7417 27.375 16.875L30.35 15.625L33.1 20.375L30.525 22.325C30.5417 22.4417 30.55 22.5543 30.55 22.663V23.337C30.55 23.4457 30.5333 23.5583 30.5 23.675L33.075 25.625L30.325 30.375L27.375 29.125C27.1917 29.2583 27 29.3833 26.8 29.5C26.6 29.6167 26.4 29.7167 26.2 29.8L25.8 33H20.3ZM23.1 26.5C24.0667 26.5 24.8917 26.1583 25.575 25.475C26.2583 24.7917 26.6 23.9667 26.6 23C26.6 22.0333 26.2583 21.2083 25.575 20.525C24.8917 19.8417 24.0667 19.5 23.1 19.5C22.1167 19.5 21.2873 19.8417 20.612 20.525C19.9367 21.2083 19.5993 22.0333 19.6 23C19.6 23.9667 19.9377 24.7917 20.613 25.475C21.2883 26.1583 22.1173 26.5 23.1 26.5Z" fill="white"/>
</svg>
